<?xml version="1.0" standalone="no"?><!DOCTYPE svg PUBLIC "-//W3C//DTD SVG 1.1//EN" "http://www.w3.org/Graphics/SVG/1.1/DTD/svg11.dtd"><svg t="1617507064701" class="icon" viewBox="0 0 1024 1024" version="1.1" xmlns="http://www.w3.org/2000/svg" p-id="1220" xmlns:xlink="http://www.w3.org/1999/xlink" width="200" height="200"><defs><style type="text/css"></style></defs><path d="M854.39 928H171.61c-40.65 0-73.6-32.95-73.6-73.6V171.61c0-40.65 32.95-73.6 73.6-73.6h682.78c40.65 0 73.6 32.95 73.6 73.6v682.78c0.01 40.65-32.95 73.61-73.6 73.61z" fill="#3CF2A6" p-id="1221"></path><path d="M829.61 882.56H194.59c-29.41 0-53.25-23.84-53.25-53.25V194.28c0-29.41 23.84-53.25 53.25-53.25h635.03c29.41 0 53.25 23.84 53.25 53.25v635.03c-0.01 29.41-23.85 53.25-53.26 53.25z" fill="#00261A" p-id="1222"></path><path d="M253.25 332.6H303v354.55h-49.74V332.6z m33.65 307.24h80.23c26.17 0 46.45-6.79 60.84-20.36s21.58-32.71 21.58-57.43V457.69c0-24.71-7.19-43.85-21.58-57.43-14.39-13.57-34.67-20.36-60.84-20.36H286.9v-47.3h78.76c28.45 0 52.75 4.96 72.91 14.87 20.16 9.92 35.52 24.38 46.09 43.4s15.85 41.94 15.85 68.77V560.1c0 26.82-5.28 49.74-15.85 68.76-10.57 19.02-25.97 33.49-46.21 43.4-20.24 9.92-44.59 14.88-73.03 14.88H286.9v-47.3zM576.11 434.04h49.74v253.11h-49.74V434.04z m153.62 99.73c0-17.88-4.63-31.7-13.9-41.45-9.27-9.75-22.27-14.63-39.01-14.63-16.26 0-28.82 4.31-37.67 12.92-8.86 8.62-13.29 20.73-13.29 36.33l-5.12-48.77c7.8-15.28 18-27.07 30.6-35.36 12.6-8.29 26.54-12.44 41.82-12.44 27.47 0 48.73 8.98 63.77 26.94 15.03 17.96 22.56 43.37 22.56 76.2v153.62h-49.75V533.77z" fill="#D4FCEF" p-id="1223"></path></svg>