<?xml version="1.0" standalone="no"?><!DOCTYPE svg PUBLIC "-//W3C//DTD SVG 1.1//EN" "http://www.w3.org/Graphics/SVG/1.1/DTD/svg11.dtd"><svg t="1617507054952" class="icon" viewBox="0 0 1024 1024" version="1.1" xmlns="http://www.w3.org/2000/svg" p-id="1068" xmlns:xlink="http://www.w3.org/1999/xlink" width="200" height="200"><defs><style type="text/css"></style></defs><path d="M98 98h829.99v829.99H98z" fill="#A595FE" p-id="1069"></path><path d="M141.34 141.04h741.52v741.52H141.34z" fill="#002026" p-id="1070"></path><path d="M256.05 255.95h64.01V767.8h-64.01z" fill="#A595FE" p-id="1071"></path><path d="M312.48 320h71.6v447.68h-71.6z" fill="#A595FE" p-id="1072"></path><path d="M374.57 383.79h73.52V767.8h-73.52z" fill="#A595FE" p-id="1073"></path><path d="M442.52 447.96h69.58v319.57h-69.58z" fill="#A595FE" p-id="1074"></path><path d="M503.96 512.18h72.16V767.8h-72.16z" fill="#A595FE" p-id="1075"></path><path d="M570.09 576.07h70.04V767.8h-70.04zM384.07 255.95h64.01v64.01h-64.01zM448.29 319.95h64.01v64.01h-64.01zM512.1 384.08h64.01v64.01H512.1zM576.11 448.11h64.01v64.01h-64.01zM640.12 512.03h64.01v64.01h-64.01zM704.14 576.07h64.01v64.01h-64.01zM704.14 448.21h64.01v64.01h-64.01zM640.12 383.79h64.01v64.01h-64.01z" fill="#A595FE" p-id="1076"></path><path d="M512.1 255.95h64.01v64.01H512.1zM640.12 255.95h64.01v64.01h-64.01zM704.141 639.969v70.6h-447.68v-70.6z" fill="#A595FE" p-id="1077"></path><path d="M768.148 703.879v63.65h-512.1v-63.65z" fill="#A595FE" p-id="1078"></path></svg>