<?xml version="1.0" standalone="no"?><!DOCTYPE svg PUBLIC "-//W3C//DTD SVG 1.1//EN" "http://www.w3.org/Graphics/SVG/1.1/DTD/svg11.dtd"><svg t="1617592514980" class="icon" viewBox="0 0 1140 1024" version="1.1" xmlns="http://www.w3.org/2000/svg" p-id="2209" xmlns:xlink="http://www.w3.org/1999/xlink" width="222.65625" height="200"><defs><style type="text/css"></style></defs><path d="M1089.726017 1023.998652h-1044.896583A44.492371 44.492371 0 0 1 0 979.506281V62.019668A62.019668 62.019668 0 0 1 62.019668 0h805.58156l273.021365 253.134624v719.630389a51.233639 51.233639 0 0 1-50.896576 51.233639z" fill="#FA4E4E" p-id="2210"></path><path d="M878.050193 273.358429l262.5724-20.223805L867.601228 0l-18.538488 244.370975a28.987454 28.987454 0 0 0 28.987453 28.987454z" fill="#DD4747" p-id="2211"></path><path d="M896.588681 253.134624h244.033912L867.601228 0v224.14717a28.65039 28.65039 0 0 0 28.987453 28.987454z" fill="#F77272" p-id="2212"></path><path d="M808.952194 602.669384a124.039336 124.039336 0 0 0-89.995932-25.953883 422.340458 422.340458 0 0 0-80.221092 7.752459 438.182438 438.182438 0 0 1-49.548322-58.311971 417.284507 417.284507 0 0 1-30.335708-48.874195 454.361482 454.361482 0 0 0 25.953883-130.106478c0-35.728722-12.80841-73.142761-49.885385-73.14276a33.706341 33.706341 0 0 0-28.65039 16.85317c-16.516107 30.335707-9.437776 96.400136 19.549678 161.116312-10.786029 33.706341-21.909122 63.704985-36.065785 98.422517-12.134283 28.987454-26.290946 59.660224-41.121737 87.299424-83.591727 33.706341-137.521873 73.479824-142.577824 104.489659a33.706341 33.706341 0 0 0 10.111902 30.67277 50.222449 50.222449 0 0 0 31.683961 11.460156c55.615463 0 113.927434-91.344185 143.589015-146.622585 22.583249-7.752459 45.503561-14.83079 67.412682-21.572058a734.124116 734.124116 0 0 1 72.468634-16.516107 206.619873 206.619873 0 0 0 134.825366 62.356731c31.683961 0 43.144117-13.482537 47.188878-24.268566a36.739912 36.739912 0 0 0-4.381824-37.414039z m-29.661581 22.246186a27.302137 27.302137 0 0 1-29.66158 19.212614 55.2784 55.2784 0 0 1-12.80841 0 209.31638 209.31638 0 0 1-83.254663-45.166497 399.420146 399.420146 0 0 1 63.704985-5.393015 150.667346 150.667346 0 0 1 38.425229 3.033571 25.616819 25.616819 0 0 1 23.594439 29.66158z m-161.116312-36.065786c-19.549678 3.707698-40.44761 8.763649-62.693795 14.83079s-35.391658 9.774839-53.593083 16.516108c9.774839-19.212615 18.201424-38.088166 25.61682-55.615464s16.516107-43.818244 24.268566-64.716175c7.752459 13.145473 15.84198 26.290946 24.268566 37.751102 13.8196 18.201424 27.976263 35.728722 42.132926 51.233639z m-98.75958-288.526282a17.527298 17.527298 0 0 1 14.493727-9.437776c15.84198 0 18.538488 18.875551 18.538488 33.706342a434.137677 434.137677 0 0 1-20.223805 105.837912c-21.909122-60.334351-23.594439-110.219736-12.80841-130.106478zM438.182438 661.318418c-38.425229 64.716175-75.839268 105.500849-98.422517 105.500849a19.549678 19.549678 0 0 1-11.460156-4.044761 17.864361 17.864361 0 0 1-5.393014-16.179044c2.696507-23.257376 47.863005-55.615463 115.275687-85.277044z" fill="#FFFFFF" p-id="2213"></path></svg>