<?xml version="1.0" standalone="no"?><!DOCTYPE svg PUBLIC "-//W3C//DTD SVG 1.1//EN" "http://www.w3.org/Graphics/SVG/1.1/DTD/svg11.dtd"><svg class="icon" width="200px" height="200.00px" viewBox="0 0 1024 1024" version="1.1" xmlns="http://www.w3.org/2000/svg"><path d="M64 64m102.4 0l691.2 0q102.4 0 102.4 102.4l0 691.2q0 102.4-102.4 102.4l-691.2 0q-102.4 0-102.4-102.4l0-691.2q0-102.4 102.4-102.4Z" fill="#260D40" /><path d="M857.6 983.04H166.4a125.5808 125.5808 0 0 1-125.44-125.44V166.4a125.5808 125.5808 0 0 1 125.44-125.44h691.2a125.5808 125.5808 0 0 1 125.44 125.44v691.2a125.5808 125.5808 0 0 1-125.44 125.44zM166.4 87.04a79.4496 79.4496 0 0 0-79.36 79.36v691.2a79.4496 79.4496 0 0 0 79.36 79.36h691.2a79.4496 79.4496 0 0 0 79.36-79.36V166.4a79.4496 79.4496 0 0 0-79.36-79.36z" fill="#DA91FF" /><path d="M471.552 445.44c-10.752-41.984-37.888-72.704-91.136-72.704-78.336 0-111.104 69.12-111.104 139.264s32.768 139.264 111.104 139.264c56.832 0 88.064-42.496 93.184-95.744h62.464c-5.12 87.552-67.072 147.968-155.648 147.968-109.568 0-175.104-87.04-175.104-191.488s65.536-191.488 175.104-191.488c82.432 0.512 147.456 46.08 155.136 124.928zM586.24 329.216h58.368v135.68h1.024c14.336-24.064 44.544-41.984 79.36-41.984 57.344 0 93.696 30.72 93.696 90.112v181.76H760.32v-166.4c-1.024-41.472-17.408-59.392-51.712-59.392-38.912 0-64 30.72-64 69.632v156.16H586.24z" fill="#DA91FF" /></svg>